<?xml version="1.0" standalone="no"?>
<!DOCTYPE svg PUBLIC "-//W3C//DTD SVG 20010904//EN"
 "http://www.w3.org/TR/2001/REC-SVG-20010904/DTD/svg10.dtd">
<svg version="1.0" xmlns="http://www.w3.org/2000/svg"
 width="2000.000000pt" height="2013.000000pt" viewBox="0 0 2000.000000 2013.000000"
 preserveAspectRatio="xMidYMid meet">

<g transform="translate(0.000000,2013.000000) scale(0.100000,-0.100000)"
fill="#000000" stroke="none">
<path d="M10400 18130 c-24 -8 -24 -8 7 -9 17 -1 35 4 38 9 7 11 -9 11 -45 0z"/>
<path d="M10195 18070 c-38 -11 -97 -28 -130 -39 -52 -17 -56 -20 -27 -20 18
-1 45 5 60 13 15 7 55 18 90 24 34 6 72 18 84 27 29 19 12 18 -77 -5z"/>
<path d="M11806 17999 c-136 -15 -236 -47 -236 -74 0 -8 1 -15 3 -15 1 0 28
-4 60 -10 31 -5 101 -12 155 -15 113 -6 267 -21 439 -41 67 -8 139 -14 160
-14 21 0 58 -6 83 -14 25 -8 97 -26 160 -42 63 -15 144 -38 180 -51 36 -14 85
-29 109 -34 25 -5 52 -15 60 -23 9 -8 40 -21 70 -30 30 -9 75 -29 100 -45 25
-16 57 -32 71 -36 51 -15 163 -75 177 -94 7 -11 27 -22 44 -26 16 -4 47 -23
68 -43 21 -21 70 -56 109 -80 96 -58 361 -295 472 -421 25 -28 80 -88 123
-134 86 -90 167 -190 167 -205 0 -6 23 -29 50 -52 28 -23 50 -48 50 -56 0 -8
17 -33 38 -57 21 -23 43 -54 50 -69 6 -16 26 -34 45 -41 26 -11 39 -27 56 -68
13 -30 38 -75 56 -100 18 -26 41 -62 50 -80 9 -19 30 -47 47 -64 35 -36 92
-121 103 -153 8 -28 127 -206 161 -242 12 -14 30 -43 40 -65 9 -22 30 -58 48
-80 17 -22 65 -89 106 -150 40 -60 101 -146 136 -191 34 -44 69 -94 77 -110 8
-16 29 -42 46 -58 17 -17 31 -35 31 -41 0 -7 11 -25 25 -41 14 -16 30 -44 36
-62 6 -17 19 -37 29 -42 11 -6 35 -34 54 -63 19 -28 66 -89 103 -133 37 -45
84 -105 103 -134 19 -28 44 -59 54 -68 30 -27 44 -43 92 -107 25 -33 82 -98
128 -145 46 -47 93 -105 105 -128 12 -24 39 -55 61 -70 22 -15 42 -35 46 -45
3 -10 34 -49 68 -85 34 -37 74 -83 88 -103 15 -20 71 -81 124 -135 53 -55 105
-117 116 -139 20 -39 76 -125 88 -135 3 -3 14 -18 24 -34 10 -17 32 -41 48
-54 16 -14 43 -52 60 -86 16 -33 43 -74 58 -91 15 -16 33 -46 39 -67 7 -20 18
-39 26 -42 8 -3 37 -54 65 -113 28 -59 60 -117 70 -128 18 -19 31 -51 90 -222
10 -28 27 -64 36 -79 36 -55 91 -292 104 -454 11 -126 3 -277 -21 -395 -5 -27
-14 -83 -19 -123 -10 -76 -102 -368 -221 -702 -26 -74 -68 -193 -94 -265 -25
-71 -54 -146 -64 -165 -10 -19 -26 -62 -35 -95 -10 -33 -35 -107 -56 -165 -21
-58 -48 -145 -60 -195 -12 -49 -35 -135 -51 -190 -15 -55 -38 -161 -50 -235
-25 -158 -21 -305 11 -428 11 -42 20 -99 20 -126 0 -32 7 -62 18 -81 20 -32
37 -161 34 -250 -1 -27 3 -96 9 -153 11 -106 10 -117 -28 -272 -9 -36 -34
-105 -56 -155 -21 -49 -46 -108 -54 -130 -23 -63 -68 -126 -129 -180 -52 -47
-141 -149 -193 -223 -12 -18 -37 -38 -54 -46 -18 -7 -63 -50 -102 -96 -38 -45
-88 -101 -110 -124 -22 -22 -49 -54 -58 -69 -10 -16 -25 -36 -34 -45 -53 -59
-230 -416 -278 -563 -9 -27 -28 -63 -42 -79 -13 -16 -45 -87 -69 -157 -25 -70
-59 -149 -75 -175 -16 -27 -38 -76 -50 -110 -11 -35 -45 -106 -74 -158 -29
-52 -56 -106 -60 -120 -4 -14 -24 -61 -46 -105 -21 -44 -51 -111 -65 -149 -15
-38 -42 -89 -60 -113 -19 -25 -34 -52 -34 -61 -1 -33 -28 -91 -74 -160 -25
-39 -54 -94 -64 -124 -10 -29 -35 -75 -55 -101 -20 -27 -37 -55 -37 -62 0 -7
-16 -32 -35 -55 -19 -23 -35 -47 -35 -54 0 -7 -13 -32 -29 -57 -16 -24 -32
-56 -36 -71 -4 -15 -32 -55 -62 -90 -57 -65 -102 -134 -151 -228 -20 -40 -39
-61 -70 -78 -35 -19 -44 -31 -53 -66 -8 -31 -26 -58 -66 -97 -30 -30 -64 -70
-74 -91 -18 -35 -71 -83 -81 -72 -6 6 -78 -72 -78 -85 0 -5 -30 -32 -67 -60
-38 -28 -79 -67 -92 -86 -13 -19 -42 -45 -65 -59 -22 -13 -50 -33 -60 -45 -11
-12 -24 -21 -29 -21 -5 0 -38 -18 -73 -40 -35 -22 -67 -40 -72 -40 -5 0 -29
-15 -53 -34 -110 -83 -345 -186 -470 -205 -41 -6 -98 -18 -127 -27 -30 -8 -67
-12 -86 -9 -20 4 -47 1 -69 -9 -20 -8 -63 -15 -94 -16 -154 -3 -507 13 -578
25 -98 17 -175 25 -281 29 -49 2 -93 10 -112 20 -54 28 -264 48 -277 26 -11
-18 29 -58 70 -70 22 -6 59 -23 82 -36 23 -13 55 -24 71 -24 16 0 35 -7 42
-14 6 -8 37 -20 68 -27 31 -7 75 -25 97 -40 25 -17 75 -36 130 -49 97 -22 155
-50 155 -75 0 -23 47 -38 84 -25 25 8 42 6 86 -11 30 -12 102 -28 160 -35 65
-9 124 -24 155 -39 80 -38 146 -48 280 -42 66 4 136 9 155 12 124 20 212 41
260 62 30 14 84 36 119 50 36 13 78 35 93 49 16 13 35 24 42 24 7 0 34 14 62
32 27 18 68 40 91 49 52 21 85 45 182 135 42 40 94 81 117 92 22 11 53 37 68
57 15 20 45 47 67 61 22 13 47 40 55 58 11 21 28 37 50 45 20 7 41 26 55 49
12 20 43 57 69 82 27 25 55 62 63 82 9 21 47 75 84 120 97 117 173 223 173
240 0 14 43 86 59 98 27 22 94 117 106 151 9 23 32 70 53 103 22 34 50 92 63
130 16 45 40 86 72 123 26 30 47 62 47 72 0 18 122 281 196 422 18 37 34 73
34 82 0 8 20 55 44 103 24 49 51 112 60 141 10 28 26 63 37 77 11 13 23 44 29
68 8 38 76 218 115 303 7 17 25 59 38 95 13 36 38 99 55 140 100 248 177 442
192 486 10 28 27 69 39 92 12 23 21 48 21 55 0 8 14 32 31 53 17 22 35 49 40
61 22 58 144 199 359 415 305 307 338 346 391 466 17 37 37 81 46 97 33 63 76
221 80 297 6 103 -15 207 -82 410 -30 92 -55 173 -55 180 0 7 -11 28 -25 48
-18 26 -32 74 -53 186 -32 167 -34 109 13 529 8 72 21 147 30 167 8 21 24 76
35 123 22 95 74 248 114 339 15 32 29 79 33 105 3 25 25 85 49 133 24 49 48
107 54 130 7 24 27 77 46 119 18 41 41 104 50 140 9 35 26 82 39 104 12 22 33
76 45 120 12 44 37 125 55 180 81 243 110 364 125 530 6 61 13 137 16 170 9
93 -12 263 -45 362 -15 48 -32 107 -35 130 -4 22 -18 56 -32 74 -15 21 -24 46
-24 71 0 46 -73 245 -99 269 -10 10 -27 39 -37 66 -10 26 -28 62 -40 78 -21
28 -36 53 -94 159 -12 21 -31 48 -41 60 -11 11 -32 46 -48 76 -15 31 -47 82
-72 114 -24 32 -54 74 -66 92 -13 18 -36 40 -52 48 -37 20 -46 44 -24 68 14
16 15 21 3 28 -7 4 -23 4 -36 0 -27 -11 -46 3 -68 50 -9 19 -58 82 -110 141
-51 58 -114 134 -140 170 -50 68 -129 159 -212 243 -28 28 -61 68 -73 89 -13
21 -36 44 -52 52 -16 9 -37 28 -46 43 -10 15 -36 45 -58 68 -62 64 -155 178
-186 227 -15 25 -41 55 -59 67 -17 12 -46 45 -65 73 -83 127 -143 207 -177
239 -21 20 -38 43 -38 53 0 9 -12 31 -26 49 -31 38 -60 79 -121 175 -27 41
-60 88 -74 105 -14 17 -34 47 -44 66 -10 19 -33 53 -51 74 -19 22 -34 47 -34
56 0 9 -20 45 -46 81 -25 35 -64 99 -87 142 -23 44 -49 83 -59 88 -21 11 -120
153 -137 196 -7 17 -24 42 -38 55 -14 12 -32 37 -40 53 -9 17 -38 58 -65 92
-26 34 -59 85 -72 115 -15 31 -51 80 -89 119 -36 37 -73 82 -83 100 -28 55
-95 150 -136 193 -124 132 -161 174 -173 196 -7 14 -31 42 -54 63 -22 21 -48
51 -56 67 -9 18 -24 30 -35 30 -13 0 -27 14 -39 38 -24 46 -53 77 -91 97 -17
9 -30 19 -30 24 0 4 -55 54 -122 110 -68 56 -140 116 -160 134 -20 17 -53 37
-74 44 -20 7 -56 31 -80 53 -24 22 -48 40 -53 40 -6 0 -30 14 -54 30 -25 17
-50 30 -55 30 -18 0 -155 65 -196 93 -26 18 -52 27 -79 27 -22 0 -54 9 -73 20
-36 23 -101 43 -214 66 -41 8 -100 21 -131 29 -30 8 -76 15 -101 15 -26 0 -73
7 -105 15 -108 28 -476 42 -627 24z"/>
<path d="M9812 17963 c-43 -15 -48 -33 -9 -33 25 0 67 26 67 41 0 11 -5 11
-58 -8z"/>
<path d="M9560 17895 l-55 -13 45 -1 c52 -1 90 8 90 20 0 11 -8 10 -80 -6z"/>
<path d="M9265 17818 c-27 -5 -95 -16 -150 -23 l-100 -14 135 6 c135 5 180 14
180 33 0 5 -3 9 -7 9 -5 -1 -30 -6 -58 -11z"/>
<path d="M8770 17760 c0 -5 6 -10 14 -10 8 0 18 5 21 10 3 6 -3 10 -14 10 -12
0 -21 -4 -21 -10z"/>
<path d="M8440 17751 c0 -24 75 -27 130 -6 34 13 33 13 -47 14 -46 1 -83 -3
-83 -8z"/>
<path d="M10655 17379 c-71 -3 -177 -4 -235 -2 -101 3 -168 -4 -460 -48 -87
-13 -224 -24 -385 -29 -137 -4 -311 -15 -385 -23 -74 -9 -191 -21 -260 -27
-69 -6 -169 -16 -222 -20 -53 -5 -123 -16 -155 -24 -32 -8 -100 -20 -152 -27
-52 -6 -105 -15 -119 -20 -13 -5 -38 -9 -55 -9 -51 0 -315 -57 -422 -90 -64
-20 -174 -48 -295 -76 -41 -9 -87 -23 -101 -30 -15 -7 -46 -17 -70 -20 -24 -4
-60 -17 -79 -29 -34 -21 -152 -64 -235 -85 -22 -5 -67 -28 -100 -49 -39 -27
-72 -41 -93 -41 -44 0 -179 -66 -217 -106 -22 -23 -45 -34 -90 -42 -34 -7 -86
-27 -119 -48 -32 -19 -79 -39 -105 -44 -35 -6 -53 -17 -81 -49 -19 -23 -39
-41 -44 -41 -19 0 -213 -99 -237 -122 -53 -49 -98 -77 -147 -93 -42 -14 -56
-25 -74 -56 -14 -26 -34 -43 -60 -54 -21 -8 -55 -31 -74 -50 -19 -19 -40 -35
-47 -35 -7 0 -37 -24 -66 -54 -31 -32 -68 -58 -90 -64 -26 -8 -46 -25 -69 -57
-17 -25 -44 -50 -58 -56 -15 -5 -51 -32 -81 -59 -30 -28 -58 -50 -62 -50 -19
0 -81 -73 -81 -94 0 -3 7 -6 16 -6 9 0 12 5 8 13 -6 9 -4 9 8 -1 25 -20 110
-9 162 22 24 14 59 43 78 64 18 21 62 53 98 72 76 38 180 107 180 119 0 9 65
41 84 41 7 0 18 11 24 25 12 27 32 38 99 55 23 6 68 30 100 54 32 24 81 51
109 60 28 9 68 29 90 45 21 16 55 32 74 36 19 4 50 20 68 36 18 16 37 29 42
29 6 0 56 22 113 49 56 27 124 54 151 60 27 7 67 20 88 31 21 10 56 21 78 25
22 4 50 15 62 24 24 19 101 46 233 81 152 40 220 62 251 81 17 10 61 25 97 33
37 7 73 19 81 25 7 6 48 18 91 26 42 8 100 21 129 29 28 8 89 20 136 26 47 6
117 20 155 30 39 11 104 24 145 31 41 6 87 17 101 25 16 8 41 11 63 7 21 -3
42 -1 50 6 8 7 50 21 94 31 44 11 95 26 113 34 32 15 279 68 399 87 82 13 185
34 275 57 44 11 118 26 165 33 47 6 104 18 127 26 24 7 119 27 211 43 92 16
181 34 198 39 38 12 170 29 359 46 83 8 227 21 320 29 94 9 189 20 212 26 23
5 55 10 71 10 28 0 72 28 72 46 0 5 9 15 20 22 11 7 20 16 20 22 0 19 -116 27
-295 19z"/>
<path d="M9385 16920 l-30 -8 37 -1 c20 0 40 4 43 9 7 11 -6 11 -50 0z"/>
<path d="M9473 16923 c15 -2 37 -2 50 0 12 2 0 4 -28 4 -27 0 -38 -2 -22 -4z"/>
<path d="M10933 16907 c49 -7 72 -6 80 2 8 8 -10 11 -68 10 l-80 -2 68 -10z"/>
<path d="M8328 16710 c-7 -11 -19 -20 -26 -20 -23 0 -73 -31 -66 -41 8 -14 44
-1 74 26 14 12 33 25 43 28 9 4 17 11 17 17 0 18 -29 11 -42 -10z"/>
<path d="M11888 16718 c6 -6 37 -13 69 -15 l58 -4 -34 16 c-41 18 -111 21 -93
3z"/>
<path d="M12041 16686 c10 -9 134 -56 148 -56 28 1 -19 30 -48 30 -14 1 -37 7
-51 15 -22 13 -60 21 -49 11z"/>
<path d="M12996 16276 c7 -17 50 -33 61 -22 10 9 -8 24 -40 31 -22 6 -26 4
-21 -9z"/>
<path d="M10948 16273 c7 -3 16 -2 19 1 4 3 -2 6 -13 5 -11 0 -14 -3 -6 -6z"/>
<path d="M11355 16200 c3 -5 17 -10 31 -10 14 0 22 4 19 10 -3 6 -17 10 -31
10 -14 0 -22 -4 -19 -10z"/>
<path d="M11861 16091 c-16 -10 -5 -18 39 -31 36 -10 52 7 25 27 -21 15 -44
17 -64 4z"/>
<path d="M6377 15846 c-31 -19 -70 -37 -87 -41 -17 -4 -40 -20 -52 -35 -12
-16 -39 -36 -61 -45 -68 -27 -279 -176 -437 -310 -40 -33 -98 -78 -129 -100
-32 -22 -70 -49 -85 -59 -15 -11 -32 -30 -36 -42 -5 -13 -28 -32 -54 -44 -25
-11 -62 -40 -83 -65 -20 -25 -45 -47 -54 -50 -10 -3 -35 -23 -57 -43 -22 -20
-53 -44 -69 -52 -15 -9 -36 -32 -45 -52 -11 -23 -45 -57 -94 -94 -56 -42 -81
-68 -94 -99 -18 -42 -61 -85 -86 -85 -8 0 -25 -22 -38 -49 -14 -26 -44 -68
-66 -91 -32 -33 -40 -48 -36 -66 8 -29 -10 -77 -27 -71 -6 2 -11 14 -9 26 3
29 -25 25 -45 -6 -13 -20 -13 -23 5 -39 19 -16 19 -19 5 -41 -12 -18 -19 -21
-29 -12 -18 15 -30 5 -57 -49 -59 -118 -82 -159 -104 -185 -12 -16 -23 -35
-23 -42 0 -8 -13 -30 -30 -48 -22 -26 -30 -45 -30 -73 0 -26 -9 -53 -27 -79
-21 -30 -28 -55 -31 -102 -4 -60 -5 -63 -28 -57 -31 8 -46 -29 -38 -90 7 -51
-8 -67 -25 -29 l-12 27 -19 -29 c-10 -17 -25 -59 -34 -94 -9 -35 -28 -91 -42
-125 -14 -33 -32 -83 -40 -110 -8 -27 -23 -59 -34 -71 -12 -13 -26 -50 -34
-95 -11 -58 -20 -77 -42 -95 -23 -18 -28 -31 -31 -71 -3 -60 -11 -87 -56 -189
-20 -44 -39 -105 -43 -135 -4 -35 -18 -73 -37 -104 -27 -42 -33 -65 -48 -192
-13 -103 -24 -154 -38 -177 -28 -47 -63 -193 -59 -247 3 -25 -2 -83 -9 -130
-15 -97 -20 -132 -27 -211 -3 -31 -10 -69 -17 -85 -17 -43 -17 -1187 0 -1314
25 -191 31 -270 37 -490 3 -124 11 -234 16 -244 18 -33 37 -128 38 -183 0 -38
5 -57 19 -70 30 -28 41 -68 41 -152 0 -44 6 -94 14 -112 7 -19 24 -77 37 -129
15 -66 31 -105 49 -126 20 -23 29 -48 34 -88 4 -32 19 -81 32 -111 14 -29 29
-78 34 -108 7 -46 88 -232 155 -357 7 -14 34 -77 59 -140 26 -63 55 -122 66
-131 29 -25 108 -172 172 -318 10 -24 30 -57 43 -73 14 -16 25 -38 25 -47 0
-18 40 -74 111 -155 19 -23 52 -72 73 -111 47 -88 49 -89 77 -75 19 11 24 10
36 -6 7 -10 13 -30 13 -46 0 -18 13 -42 35 -67 19 -21 35 -45 35 -52 0 -27 30
-57 63 -63 24 -4 38 -15 48 -35 27 -56 165 -191 217 -212 34 -14 53 -30 67
-55 10 -19 31 -42 46 -51 15 -9 33 -26 39 -39 13 -23 143 -144 156 -144 4 0
27 -20 51 -45 23 -25 52 -45 63 -45 11 0 20 -5 20 -12 0 -24 51 -77 80 -83 17
-4 35 -15 40 -26 6 -10 17 -19 25 -19 22 0 18 38 -5 45 -11 4 -27 20 -36 37
-17 33 -52 73 -126 149 -27 26 -48 52 -48 58 0 6 -18 22 -40 36 -23 14 -45 38
-51 53 -6 15 -27 45 -48 67 -21 22 -48 54 -60 72 -12 17 -30 34 -40 38 -10 3
-30 27 -45 53 -53 90 -98 147 -132 165 -19 9 -34 21 -34 26 0 4 -13 25 -30 46
-16 21 -34 54 -40 74 -6 23 -30 56 -65 91 -59 58 -168 211 -193 270 -15 36
-35 65 -88 128 -18 20 -60 91 -93 156 -34 66 -66 125 -71 131 -17 21 -90 165
-90 179 0 7 -9 21 -20 31 -10 9 -27 40 -36 69 -9 28 -45 110 -79 181 -35 72
-72 157 -83 190 -11 33 -34 95 -50 138 -17 42 -36 101 -42 130 -7 28 -22 70
-32 91 -22 44 -34 85 -79 271 -17 72 -46 178 -65 237 -19 58 -41 142 -49 185
-9 43 -22 107 -29 143 -28 130 -55 328 -66 485 -6 88 -16 212 -22 275 -16 176
-13 635 5 895 23 313 24 326 57 525 45 265 59 336 91 450 62 226 78 286 84
325 3 22 17 69 30 105 66 184 95 270 106 315 6 28 20 64 31 82 10 17 32 71 49
120 32 93 40 112 99 238 56 120 69 149 79 165 47 78 80 141 89 168 6 18 22 47
34 64 23 32 70 113 128 223 18 33 50 84 72 113 22 29 58 88 80 130 23 42 56
97 74 121 19 24 34 49 34 56 0 6 20 35 44 63 25 29 48 61 51 72 4 11 19 27 35
35 18 9 37 33 49 60 11 25 24 45 29 45 5 0 23 21 41 48 19 26 56 70 83 97 66
67 146 168 158 200 6 15 24 32 43 40 19 8 42 27 52 42 10 15 57 66 105 113 48
47 99 104 114 127 16 23 38 45 50 49 21 6 78 56 171 150 27 28 75 69 105 91
30 22 64 50 74 62 11 11 26 21 34 21 9 0 42 26 74 58 110 109 133 128 167 142
30 12 91 80 91 102 0 19 -60 6 -113 -26z"/>
<path d="M3891 15675 c-18 -27 -44 -73 -57 -102 -12 -29 -30 -56 -39 -59 -26
-10 -58 -81 -46 -102 6 -9 11 -12 11 -6 0 7 9 14 19 17 19 4 38 37 115 197 45
92 44 124 -3 55z"/>
<path d="M4948 15492 c-28 -3 -45 -32 -32 -53 4 -8 3 -9 -4 -5 -7 4 -12 3 -12
-2 0 -5 14 -15 30 -22 24 -10 33 -10 45 0 8 7 15 9 16 4 1 -9 27 54 28 68 1 4
-6 5 -15 1 -9 -3 -19 -2 -23 3 -3 5 -18 8 -33 6z"/>
<path d="M3673 15318 c-21 -23 -53 -105 -53 -135 0 -9 -14 -38 -30 -64 -17
-26 -34 -69 -39 -96 -5 -34 -16 -57 -39 -80 -27 -27 -32 -39 -32 -80 0 -31 -7
-60 -21 -82 -11 -18 -27 -61 -35 -95 -8 -33 -25 -90 -38 -126 -13 -36 -32
-101 -41 -145 -9 -44 -27 -116 -40 -160 -13 -44 -33 -123 -45 -175 -12 -52
-30 -124 -41 -160 -10 -36 -23 -85 -28 -110 -26 -114 -68 -258 -85 -289 -10
-19 -26 -62 -36 -95 -24 -81 -86 -221 -153 -342 -58 -106 -123 -243 -182 -389
-62 -150 -116 -267 -151 -326 -19 -31 -34 -62 -34 -68 0 -6 -16 -57 -36 -113
-20 -57 -49 -140 -65 -185 -16 -46 -44 -117 -64 -159 -19 -42 -35 -83 -35 -90
0 -7 -13 -46 -29 -86 -15 -40 -31 -95 -35 -123 -7 -51 -59 -232 -78 -272 -6
-11 -8 -27 -6 -35 3 -7 -1 -33 -8 -58 -8 -25 -14 -58 -14 -74 0 -44 -20 -147
-36 -184 -9 -20 -12 -47 -8 -71 4 -27 1 -46 -10 -63 -16 -24 -23 -64 -55 -303
-13 -100 -19 -210 -20 -384 -1 -134 -4 -255 -7 -268 -4 -13 -3 -66 1 -118 5
-76 12 -102 31 -130 20 -30 24 -48 24 -109 0 -78 12 -102 45 -90 28 11 45 -22
45 -91 0 -57 3 -64 35 -95 19 -19 35 -39 35 -46 0 -6 11 -28 25 -48 13 -20 31
-60 38 -88 17 -63 61 -136 105 -173 18 -15 32 -33 32 -40 0 -7 7 -19 17 -26 9
-8 25 -34 36 -59 29 -68 96 -164 127 -182 20 -12 29 -26 34 -59 9 -54 30 -89
56 -89 24 0 32 -13 45 -70 8 -36 16 -47 40 -58 54 -24 58 -28 70 -68 8 -32 16
-40 38 -42 31 -4 33 -9 13 -31 -20 -22 -9 -65 25 -102 16 -17 38 -48 50 -69
12 -21 36 -44 55 -54 19 -8 34 -21 34 -28 0 -7 27 -49 60 -93 38 -51 62 -94
66 -118 4 -21 16 -53 28 -70 12 -18 34 -64 49 -103 29 -75 48 -99 82 -106 16
-2 22 -15 28 -58 11 -78 26 -119 58 -165 19 -27 34 -66 43 -115 8 -42 24 -97
35 -122 18 -43 32 -105 45 -198 3 -19 12 -69 20 -110 8 -41 15 -104 16 -140 0
-36 5 -83 10 -105 20 -76 33 -115 41 -115 4 0 10 -28 14 -62 4 -35 14 -75 21
-90 8 -15 14 -40 13 -55 -1 -46 11 -116 27 -147 8 -16 14 -42 14 -58 0 -23 4
-28 25 -28 14 0 25 3 26 8 0 4 2 16 5 27 8 38 5 180 -4 210 -5 18 -6 40 0 54
4 13 6 32 3 42 -9 27 -36 265 -41 354 -6 112 -22 217 -49 310 -13 44 -26 110
-29 147 -4 36 -13 81 -20 100 -8 18 -24 74 -36 123 -13 52 -34 109 -51 134
-16 25 -38 75 -49 111 -13 43 -30 76 -50 95 -23 22 -30 38 -30 67 0 29 -8 47
-36 77 -53 59 -80 100 -112 166 -16 33 -42 76 -59 95 -32 37 -113 185 -113
206 0 7 -20 36 -45 64 -25 28 -59 77 -75 110 -16 32 -36 62 -43 67 -8 4 -22
24 -32 43 -10 19 -31 49 -47 65 -16 17 -54 67 -83 112 -29 45 -64 97 -78 115
-14 18 -35 55 -47 82 -11 27 -33 65 -49 85 -32 41 -145 244 -156 281 -4 14
-21 40 -36 58 -16 18 -31 45 -35 60 -3 15 -30 101 -59 192 -30 91 -59 200 -66
243 -14 93 -6 679 11 822 23 185 28 221 39 275 6 30 17 111 26 180 9 69 22
148 30 175 7 28 21 86 30 130 9 44 25 109 36 145 10 36 24 92 30 124 6 33 19
83 29 110 10 28 21 67 25 86 10 56 55 188 90 270 19 41 47 118 63 170 17 53
47 127 68 165 20 39 47 97 60 130 27 72 65 161 98 230 13 28 36 79 52 115 15
36 38 88 50 115 13 28 30 69 38 90 8 22 34 85 59 140 24 55 47 113 51 129 4
17 16 42 26 56 10 14 22 39 25 56 4 16 20 72 35 124 26 89 50 187 65 270 4 19
15 58 25 86 34 92 100 381 100 434 0 14 9 52 20 85 10 33 30 103 43 155 14 52
34 121 46 153 12 31 25 83 30 115 5 31 18 80 29 107 11 28 32 88 46 135 14 47
34 113 45 147 11 34 17 71 14 82 -7 27 -34 27 -60 -1z"/>
<path d="M13985 14900 c3 -5 11 -10 16 -10 6 0 7 5 4 10 -3 6 -11 10 -16 10
-6 0 -7 -4 -4 -10z"/>
<path d="M4367 14825 c-10 -7 -19 -26 -20 -41 -2 -25 2 -29 23 -29 21 0 26 5
28 34 4 41 -7 54 -31 36z"/>
<path d="M15153 14613 c-18 -7 -16 -44 2 -70 31 -44 62 7 35 58 -11 19 -16 21
-37 12z"/>
<path d="M4253 14566 c-7 -9 -10 -28 -6 -49 5 -32 7 -34 24 -24 21 13 26 67 7
67 -9 0 -8 4 2 10 13 9 13 10 0 9 -8 0 -20 -6 -27 -13z"/>
<path d="M4240 14414 c-9 -25 -9 -39 -2 -46 18 -18 42 10 42 48 0 46 -25 45
-40 -2z"/>
<path d="M14484 14399 c-3 -6 3 -20 14 -32 19 -19 22 -19 28 -4 11 29 -26 61
-42 36z"/>
<path d="M5390 14380 c0 -5 4 -10 9 -10 6 0 13 5 16 10 3 6 -1 10 -9 10 -9 0
-16 -4 -16 -10z"/>
<path d="M4167 14297 c-3 -8 -1 -20 4 -28 8 -12 10 -12 19 1 5 8 8 19 7 24 -5
16 -24 18 -30 3z"/>
<path d="M5282 14293 c-5 -10 -7 -24 -5 -30 6 -18 53 -16 53 1 0 43 -31 62
-48 29z"/>
<path d="M5196 14164 c-10 -27 -7 -44 9 -44 10 0 15 10 15 30 0 32 -14 40 -24
14z"/>
<path d="M15546 14091 c-8 -12 11 -61 23 -61 15 0 19 23 8 48 -11 23 -22 28
-31 13z"/>
<path d="M5050 14024 c-6 -14 -10 -29 -10 -33 0 -13 40 -61 50 -61 14 0 40 55
40 83 0 44 -65 52 -80 11z"/>
<path d="M3030 13981 c0 -16 -3 -38 -6 -48 -5 -13 -4 -15 5 -7 17 15 27 84 12
84 -6 0 -11 -13 -11 -29z"/>
<path d="M15677 13943 c-12 -11 -8 -23 8 -23 8 0 15 7 15 15 0 16 -12 20 -23
8z"/>
<path d="M4957 13879 c-19 -27 -3 -99 24 -106 11 -3 16 -9 13 -14 -3 -5 2 -9
11 -9 10 0 13 -5 9 -12 -5 -9 -2 -9 9 1 21 17 22 45 2 61 -9 7 -20 32 -26 56
-13 49 -21 54 -42 23z"/>
<path d="M4909 13727 c-28 -21 -39 -55 -41 -125 -1 -74 5 -94 26 -86 23 9 38
56 43 135 6 78 -1 96 -28 76z"/>
<path d="M17101 13500 c16 -34 90 -122 97 -116 3 3 -9 20 -27 38 -17 17 -31
35 -31 38 0 4 -12 20 -26 36 -24 27 -25 27 -13 4z"/>
<path d="M4823 13466 c-11 -5 -28 -25 -37 -43 -14 -30 -26 -38 -49 -34 -22 4
-47 -22 -47 -49 0 -41 -9 -60 -30 -60 -29 0 -50 -33 -50 -81 0 -52 -18 -91
-43 -95 -35 -5 -57 -35 -57 -77 0 -32 -6 -46 -34 -72 -44 -41 -105 -163 -88
-174 9 -5 4 -25 -20 -72 -18 -35 -42 -84 -52 -109 -11 -25 -30 -68 -43 -97
-12 -28 -23 -66 -23 -83 0 -17 -10 -50 -21 -73 -12 -23 -33 -96 -46 -162 -13
-66 -29 -123 -36 -127 -7 -4 -18 -11 -25 -16 -7 -5 -17 -47 -23 -97 -5 -48
-12 -91 -14 -96 -3 -4 0 -20 6 -35 9 -26 7 -31 -20 -54 -39 -32 -50 -65 -62
-173 -5 -49 -13 -96 -18 -106 -5 -9 -15 -55 -21 -101 -6 -47 -15 -89 -20 -95
-4 -5 -11 -64 -14 -130 -10 -174 -16 -235 -26 -280 -15 -62 -12 -93 10 -115
19 -19 20 -23 6 -53 -18 -40 -27 -180 -15 -238 29 -142 31 -169 15 -210 -13
-33 -15 -52 -7 -97 6 -32 15 -118 21 -192 11 -143 16 -167 48 -240 11 -25 23
-67 26 -95 3 -27 13 -72 21 -99 8 -27 15 -67 15 -88 0 -21 9 -58 21 -81 13
-27 22 -70 25 -117 4 -61 10 -80 29 -100 44 -48 84 -144 91 -220 5 -52 14 -82
32 -108 14 -21 31 -56 38 -80 7 -23 20 -52 29 -64 8 -13 15 -31 15 -40 0 -10
4 -26 10 -36 5 -9 15 -28 20 -42 6 -14 20 -40 31 -59 11 -19 25 -61 30 -94 5
-32 17 -69 25 -82 16 -25 38 -96 54 -179 11 -55 25 -77 45 -70 15 6 56 -12 53
-24 -1 -4 2 -33 6 -64 7 -51 11 -58 31 -58 31 0 47 42 43 115 -3 54 -5 60 -28
65 -33 8 -36 33 -9 76 l22 37 -34 31 c-61 55 -72 81 -80 193 -6 107 -6 105
-75 200 -13 18 -14 27 -3 56 11 30 9 40 -15 92 -15 32 -31 91 -37 129 -12 92
-17 104 -45 135 -20 22 -31 53 -37 106 0 6 2 31 7 57 5 33 3 60 -8 92 -9 25
-18 55 -20 68 -3 13 -12 50 -20 83 -8 33 -16 112 -19 175 -3 99 -8 128 -37
210 -32 89 -34 103 -32 209 1 63 6 119 12 125 17 17 11 65 -10 78 -19 12 -20
24 -20 251 0 199 3 242 16 262 11 17 13 34 8 67 -7 36 -6 421 1 468 1 8 12 16
23 18 25 4 29 33 7 52 -15 12 -14 28 4 110 6 25 18 113 26 195 19 174 25 215
54 349 11 54 21 108 21 120 0 12 11 37 25 56 14 19 25 43 25 55 0 11 10 39 22
60 14 27 22 60 23 100 2 64 13 99 74 228 44 95 51 120 56 201 3 42 9 64 24 77
18 17 61 116 61 141 0 7 9 21 19 32 15 16 21 41 25 96 3 41 5 76 5 78 1 1 9 2
19 2 29 0 59 27 65 59 4 19 16 34 33 43 34 16 53 64 33 82 -10 9 -20 9 -36 2z
m-436 -4728 c-3 -8 -6 -5 -6 6 -1 11 2 17 5 13 3 -3 4 -12 1 -19z"/>
<path d="M16072 13414 c1 -9 9 -19 16 -22 9 -3 13 2 10 14 -1 9 -9 19 -16 22
-9 3 -13 -2 -10 -14z"/>
<path d="M15270 13241 c0 -28 17 -61 31 -61 15 0 2 50 -17 70 -12 12 -14 11
-14 -9z"/>
<path d="M16256 13154 c-8 -21 10 -42 23 -28 6 5 5 16 -3 27 -13 16 -14 16
-20 1z"/>
<path d="M15990 13130 c0 -11 8 -37 17 -58 16 -36 17 -37 20 -10 4 24 -20 88
-32 88 -3 0 -5 -9 -5 -20z"/>
<path d="M16357 13001 c6 -22 39 -61 53 -61 6 0 10 -12 10 -28 0 -38 26 -72
56 -72 24 0 34 -23 14 -35 -24 -15 3 -155 29 -155 4 0 23 -16 43 -35 33 -33
34 -37 27 -83 -5 -32 -3 -56 6 -77 8 -16 15 -41 17 -55 2 -19 10 -26 31 -28
21 -3 27 1 27 17 0 11 -6 24 -13 28 -18 10 -30 60 -17 68 6 4 8 11 5 16 -4 5
-1 9 4 9 6 0 11 -5 11 -12 0 -27 35 -87 57 -97 28 -13 30 -37 3 -53 -29 -18
-25 -47 18 -140 21 -46 51 -123 66 -173 16 -49 34 -97 41 -105 18 -23 35 -102
34 -162 -1 -29 4 -89 10 -133 19 -138 15 -412 -8 -563 -7 -46 -10 -98 -7 -116
6 -32 8 -33 31 -23 35 17 52 53 65 142 7 44 21 120 31 169 16 73 19 131 19
320 0 251 1 240 -70 466 -36 112 -49 140 -76 166 -37 33 -40 44 -22 74 10 16
10 24 -1 43 -34 52 -84 153 -101 202 -23 67 -41 95 -61 95 -20 0 -59 36 -59
55 0 8 -14 30 -30 48 -17 19 -33 49 -36 67 -5 20 -15 35 -30 40 -17 7 -24 18
-26 46 -3 32 -9 41 -42 58 -24 13 -45 35 -55 56 -18 39 -64 57 -54 21z"/>
<path d="M16040 12987 c0 -28 31 -101 50 -119 11 -11 20 -25 20 -32 0 -8 7
-19 15 -26 19 -16 19 -1 0 27 -8 11 -25 51 -37 89 -21 62 -48 96 -48 61z"/>
<path d="M5076 12841 c-19 -21 -18 -52 0 -58 18 -6 44 26 44 53 0 29 -20 31
-44 5z"/>
<path d="M15455 12833 c3 -16 13 -35 21 -43 23 -24 36 6 18 42 -20 38 -49 38
-39 1z"/>
<path d="M5024 12709 c-16 -27 -22 -79 -9 -89 16 -14 22 -4 31 47 6 40 -7 66
-22 42z"/>
<path d="M5155 12709 c-10 -15 4 -81 16 -74 12 8 12 85 0 85 -6 0 -13 -5 -16
-11z"/>
<path d="M2491 12701 c-16 -10 -21 -82 -5 -88 6 -2 18 15 27 38 21 53 12 72
-22 50z"/>
<path d="M15541 12613 c-1 -17 4 -35 9 -38 12 -7 12 22 0 50 -7 17 -9 15 -9
-12z"/>
<path d="M5067 12573 c-2 -5 -3 -39 -2 -78 2 -71 12 -86 43 -67 18 12 27 104
13 130 -11 21 -46 30 -54 15z"/>
<path d="M16240 12400 c0 -74 40 -150 53 -101 6 25 -18 110 -37 129 -15 15
-16 13 -16 -28z"/>
<path d="M2307 12402 c-23 -25 -39 -74 -29 -84 13 -13 62 49 62 78 0 28 -11
31 -33 6z"/>
<path d="M4987 12403 c-4 -3 -7 -19 -7 -34 0 -23 5 -30 28 -35 47 -10 52 -13
52 -32 0 -28 20 -82 31 -82 13 0 22 46 15 74 -3 14 -16 26 -31 30 -21 5 -25
12 -25 46 0 37 -2 40 -28 40 -16 0 -32 -3 -35 -7z"/>
<path d="M15650 12309 c11 -37 29 -61 41 -53 16 10 9 40 -14 62 -31 30 -37 28
-27 -9z"/>
<path d="M4892 12321 c-7 -4 -12 -20 -13 -37 -1 -16 -7 -51 -15 -79 -27 -107
-26 -145 5 -145 26 0 44 40 53 120 4 41 11 91 14 110 5 30 3 36 -13 37 -11 1
-25 -2 -31 -6z"/>
<path d="M3317 12313 c-9 -9 -9 -43 1 -43 13 1 42 27 42 39 0 12 -32 15 -43 4z"/>
<path d="M4642 12308 c-6 -6 -12 -23 -12 -37 l1 -26 15 28 c17 32 15 54 -4 35z"/>
<path d="M16310 12146 c0 -49 4 -77 13 -85 20 -16 27 -4 27 46 0 41 -22 113
-34 113 -4 0 -6 -33 -6 -74z"/>
<path d="M3273 12194 c-15 -15 -17 -34 -4 -34 8 0 24 41 18 46 -1 1 -8 -4 -14
-12z"/>
<path d="M2237 12193 c-11 -10 -8 -43 3 -43 6 0 10 4 10 9 0 5 3 16 6 25 6 16
-7 22 -19 9z"/>
<path d="M5080 12155 c0 -25 4 -45 10 -45 11 0 24 65 15 79 -14 24 -25 9 -25
-34z"/>
<path d="M5073 12083 c-7 -2 -13 -11 -13 -18 0 -7 -7 -15 -15 -19 -8 -3 -15
-12 -15 -20 0 -7 -7 -16 -15 -20 -8 -3 -15 -15 -15 -26 0 -11 -4 -20 -9 -20
-5 0 -12 -13 -16 -30 -4 -16 -10 -30 -15 -30 -12 0 -24 -60 -14 -70 5 -5 18
-10 29 -12 17 -2 21 4 26 42 10 77 33 144 55 165 24 23 49 65 37 64 -4 0 -14
-3 -20 -6z"/>
<path d="M2092 12025 c-16 -35 -15 -55 3 -55 18 0 30 43 18 65 -8 14 -11 12
-21 -10z"/>
<path d="M17804 11890 c0 -52 1 -74 3 -47 2 26 2 68 0 95 -2 26 -3 4 -3 -48z"/>
<path d="M4812 11903 c-6 -16 -14 -73 -17 -128 -4 -55 -7 -112 -8 -127 -1 -14
-12 -35 -24 -46 -13 -11 -23 -29 -23 -40 0 -11 -5 -24 -11 -28 -7 -4 -9 -21
-6 -40 3 -19 1 -36 -4 -40 -6 -3 -7 -24 -3 -50 5 -36 2 -51 -20 -88 -26 -44
-26 -47 -33 -313 -9 -365 2 -913 22 -1109 5 -49 4 -74 -4 -78 -6 -4 -11 -16
-11 -27 0 -11 4 -18 8 -15 5 3 20 -7 32 -22 22 -25 44 -112 41 -167 0 -11 9
-39 20 -63 11 -24 22 -64 26 -90 3 -26 11 -50 17 -54 8 -5 7 -8 -1 -8 -9 0
-13 -20 -13 -66 0 -63 1 -65 29 -75 24 -8 29 -17 34 -51 6 -44 -7 -83 -36
-110 -16 -15 -18 -26 -13 -72 7 -50 28 -98 39 -86 3 3 19 41 37 85 39 100 53
240 26 267 -9 9 -16 22 -16 28 0 6 -4 9 -9 6 -5 -4 -7 4 -3 16 4 16 2 19 -8
13 -7 -5 -11 -4 -7 1 3 5 -1 33 -8 61 -9 33 -11 73 -7 110 6 52 9 702 4 763
-2 25 -4 156 -5 400 0 127 1 135 19 133 10 -1 13 0 7 3 -10 4 -13 57 -13 215
0 122 -4 218 -10 229 -13 24 18 48 73 57 31 5 37 10 37 29 0 13 -4 24 -10 24
-5 0 -10 7 -10 15 0 8 -5 15 -11 15 -7 0 -9 10 -5 25 4 14 2 25 -4 25 -5 0
-10 6 -10 14 0 8 -5 16 -12 18 -16 6 -16 188 1 256 10 41 11 56 1 67 -7 8 -9
15 -5 15 3 0 -3 12 -14 27 -12 14 -24 43 -27 65 -8 46 -36 52 -52 11z"/>
<path d="M5152 11888 c-7 -7 -12 -22 -12 -35 0 -18 6 -23 25 -23 26 0 32 19
19 54 -7 19 -16 20 -32 4z"/>
<path d="M16270 11853 c0 -4 5 -15 10 -23 8 -13 10 -13 10 2 0 9 -4 20 -10 23
-5 3 -10 3 -10 -2z"/>
<path d="M3187 11813 c-26 -7 -55 -81 -72 -187 -13 -83 -18 -93 -47 -118 -33
-26 -33 -28 -34 -115 0 -48 -6 -104 -13 -123 -6 -19 -16 -88 -21 -154 -6 -65
-17 -141 -25 -169 -8 -28 -15 -67 -15 -86 0 -20 -8 -52 -18 -71 -13 -24 -21
-67 -25 -140 -4 -58 -14 -143 -22 -190 -22 -122 -35 -411 -23 -528 5 -53 13
-133 17 -177 4 -44 12 -89 18 -100 6 -11 27 -67 46 -125 75 -222 124 -341 147
-355 20 -13 23 4 8 42 -9 21 -23 70 -32 108 -9 39 -30 120 -46 180 -51 186
-61 378 -42 790 11 247 22 358 47 480 8 39 20 115 25 170 13 117 36 241 56
299 8 22 19 79 23 126 5 47 18 113 29 145 11 33 25 92 30 131 6 39 17 85 26
103 18 33 13 72 -7 70 -7 -1 -20 -3 -30 -6z"/>
<path d="M16303 11784 c-7 -19 12 -249 22 -276 12 -30 22 -20 29 28 8 59 8
212 0 242 -7 26 -42 30 -51 6z"/>
<path d="M5050 11771 c0 -10 7 -22 16 -25 20 -8 19 -8 28 22 6 19 4 22 -18 22
-19 0 -26 -5 -26 -19z"/>
<path d="M16450 11517 c0 -14 -11 -47 -25 -73 -14 -26 -25 -59 -25 -74 0 -15
-6 -33 -13 -39 -11 -8 -13 -50 -10 -198 4 -178 9 -218 36 -287 10 -28 11 -28
19 -7 4 12 12 19 18 16 16 -10 12 -53 -6 -63 -9 -5 -14 -15 -12 -23 3 -8 -1
-32 -9 -53 -15 -45 -29 -258 -43 -656 -9 -279 -18 -356 -56 -484 -7 -27 -14
-82 -14 -121 0 -66 2 -73 24 -83 31 -14 41 -2 51 58 4 25 11 52 16 61 4 9 9
61 10 117 1 97 3 102 30 128 27 26 29 33 29 108 0 45 7 119 16 166 9 47 19
117 24 155 4 39 12 81 18 95 5 14 13 124 16 245 10 312 -15 608 -53 618 -10 2
-23 29 -34 67 -18 63 -18 64 3 92 18 25 21 39 17 91 -10 118 -27 212 -27 144z"/>
<path d="M5897 11473 c-4 -3 -7 -14 -7 -23 0 -10 -10 -24 -22 -32 l-23 -15 -3
-781 c-1 -502 1 -789 8 -806 16 -42 49 -49 204 -41 l138 7 17 29 c9 16 22 30
29 31 11 2 14 69 13 368 -1 201 2 378 7 395 l8 30 16 -25 c16 -25 264 -425
345 -558 24 -39 53 -77 63 -82 10 -6 48 -10 85 -10 61 0 68 2 99 33 18 19 116
173 216 343 217 366 219 369 234 354 8 -8 13 -141 16 -440 4 -335 8 -432 18
-442 10 -10 49 -12 155 -10 123 2 144 5 158 21 8 10 25 22 37 25 l22 7 0 804
c0 632 -3 806 -12 812 -7 4 -78 9 -158 11 l-145 3 -44 -73 c-25 -40 -157 -262
-294 -493 -137 -231 -252 -424 -257 -428 -11 -12 -7 -18 -321 508 -155 259
-286 473 -293 477 -14 10 -300 10 -309 1z"/>
<path d="M8606 11433 c-13 -27 -163 -361 -334 -743 -170 -382 -324 -726 -341
-763 -34 -76 -39 -112 -15 -121 9 -3 76 -6 149 -6 124 0 185 10 185 31 0 4 10
9 23 13 18 4 33 32 76 141 30 74 60 143 67 153 11 16 43 17 368 17 342 0 356
-1 375 -20 11 -11 45 -80 75 -154 31 -74 63 -142 72 -153 15 -16 34 -18 170
-18 129 0 154 2 162 16 5 8 27 18 50 21 40 5 41 6 28 30 -7 14 -37 37 -66 52
-52 25 -54 29 -90 116 -21 50 -89 214 -152 365 -125 300 -184 457 -175 466 7
7 27 -11 46 -41 21 -35 9 -6 -128 303 -132 297 -134 301 -152 279 -14 -17 -20
-19 -30 -10 -9 9 -10 18 -2 36 11 24 10 25 -34 31 -25 3 -104 6 -174 6 l-129
0 -24 -47z m313 -692 c76 -183 98 -247 89 -253 -7 -4 -93 -8 -190 -8 -167 0
-178 -1 -188 -20 -14 -27 -65 -27 -80 0 -8 16 -6 26 9 47 11 16 55 111 96 213
42 102 88 211 102 243 25 56 27 57 43 40 10 -10 63 -128 119 -262z"/>
<path d="M9895 11439 c-13 -78 -17 -1600 -4 -1615 9 -11 45 -14 151 -14 125 0
143 2 165 20 14 11 34 20 44 20 17 0 18 15 21 205 l3 205 86 86 c83 83 87 86
111 73 24 -13 82 -81 375 -439 66 -80 130 -150 144 -157 15 -8 73 -13 164 -13
121 0 145 3 178 20 20 11 55 20 78 20 58 0 40 17 -62 60 -82 35 -83 36 -174
150 -130 164 -452 586 -465 609 -15 29 -12 61 6 68 9 3 49 40 89 82 165 174
529 569 557 604 l30 38 -53 -23 c-58 -23 -120 -30 -126 -12 -2 6 8 16 23 23
15 6 25 13 23 16 -2 2 -64 5 -138 6 l-134 2 -343 -363 c-189 -199 -344 -368
-344 -375 0 -24 -27 -37 -49 -25 -27 14 -28 63 -1 90 19 19 20 33 20 326 l0
306 -25 -16 c-42 -27 -58 -21 -52 19 l6 35 -88 0 c-49 0 -115 3 -148 6 l-61 7
-7 -44z m345 -1406 c0 -21 3 -48 6 -60 5 -19 2 -23 -17 -23 -23 0 -24 3 -21
48 4 57 8 72 22 72 5 0 10 -17 10 -37z"/>
<path d="M11615 11409 c-3 -41 -5 -414 -3 -829 l3 -755 585 1 c473 0 594 3
633 14 l47 15 0 45 0 45 -37 0 -38 0 -3 50 c-2 27 -8 55 -14 62 -8 10 -97 13
-405 13 l-395 0 -34 34 c-24 24 -34 44 -35 67 -2 59 3 294 6 298 2 2 17 -6 33
-18 l30 -21 6 35 7 34 327 4 c241 3 339 7 375 18 l47 14 0 45 0 45 -37 0 c-38
0 -38 0 -41 45 -2 24 -8 50 -14 57 -8 10 -86 13 -340 13 l-330 0 -28 29 c-38
38 -43 62 -33 161 9 95 30 121 35 44 2 -27 8 -49 16 -52 9 -3 12 20 12 93 0
53 5 105 10 116 10 18 25 19 385 19 238 0 376 4 380 10 3 6 17 10 30 10 52 0
55 5 55 111 0 65 -4 99 -11 99 -7 0 -9 -16 -4 -49 6 -43 4 -50 -13 -55 -38
-12 -50 2 -44 50 8 75 19 73 -403 75 -203 1 -435 4 -515 8 l-145 6 -3 28 c-2
15 -9 27 -16 27 -8 0 -27 3 -44 6 l-30 6 -7 -73z"/>
<path d="M13175 11396 c-3 -45 -5 -414 -3 -821 l3 -740 150 1 c83 0 169 4 193
9 38 7 43 11 38 29 -3 12 -6 31 -6 43 0 17 -7 22 -32 25 l-33 3 -3 140 c-1 76
0 145 3 153 4 10 11 9 32 -8 l28 -22 9 37 10 36 152 -3 c129 -3 155 -6 172
-21 11 -10 67 -86 126 -170 58 -84 123 -174 144 -202 l38 -50 144 1 c80 0 175
4 213 9 82 10 78 18 -32 70 l-77 36 -116 167 c-63 92 -118 181 -122 197 -7 35
6 60 27 52 24 -9 123 50 191 114 92 86 143 193 162 338 l6 55 -33 -29 -34 -28
-7 29 c-3 16 -11 65 -17 109 -22 163 -115 290 -263 360 -141 66 -154 68 -578
74 l-385 6 -16 35 c-12 25 -25 36 -47 41 l-30 6 -7 -81z m825 -276 c224 -80
271 -353 81 -467 -30 -18 -59 -35 -65 -37 -6 -3 -2 -12 12 -22 31 -23 28 -29
-20 -50 -35 -15 -78 -19 -239 -22 -300 -6 -289 -19 -289 337 0 137 4 252 9
255 4 3 16 -3 26 -14 25 -28 33 -25 41 16 l7 36 186 -5 c160 -4 195 -8 251
-27z"/>
<path d="M15856 11400 c-8 -29 14 -106 29 -103 17 4 16 47 -4 88 -18 39 -19
39 -25 15z"/>
<path d="M15901 10273 c-7 -32 -15 -69 -18 -83 -2 -14 -11 -113 -19 -220 -20
-266 -28 -329 -58 -445 -26 -101 -34 -185 -17 -185 19 0 47 125 56 247 3 46 9
93 14 106 19 48 53 328 53 427 0 58 6 123 13 145 6 22 10 46 7 53 -8 26 -19
10 -31 -45z"/>
<path d="M5070 9793 c0 -13 5 -23 10 -23 13 0 13 11 0 30 -8 12 -10 11 -10 -7z"/>
<path d="M4958 9641 c-10 -10 -18 -25 -18 -35 0 -11 -4 -15 -12 -10 -10 6 -10
4 -2 -7 7 -8 15 -29 19 -46 3 -18 10 -33 15 -33 4 0 11 -11 14 -24 5 -21 41
-45 51 -34 15 16 1 178 -16 178 -5 0 -9 7 -9 15 0 20 -21 18 -42 -4z"/>
<path d="M16366 9361 c-3 -4 -1 -23 4 -42 6 -19 10 -54 10 -80 0 -53 23 -94
40 -69 14 22 12 65 -6 108 -8 20 -16 49 -16 65 -1 26 -21 37 -32 18z"/>
<path d="M1856 9260 c21 -43 24 -47 24 -28 0 9 -9 26 -20 39 l-21 24 17 -35z"/>
<path d="M15751 9216 c-7 -8 -14 -31 -17 -53 l-6 -38 21 25 c11 14 21 37 21
53 0 31 -3 33 -19 13z"/>
<path d="M16266 9223 c-13 -13 -6 -63 9 -63 10 0 15 10 15 29 0 30 -12 46 -24
34z"/>
<path d="M5069 9198 c-1 -1 -3 -71 -4 -154 -2 -112 1 -155 11 -168 12 -17 14
-17 28 -3 19 18 20 48 5 118 -6 28 -12 86 -13 127 -1 50 -5 77 -13 80 -7 2
-14 2 -14 0z"/>
<path d="M4770 9170 c0 -5 5 -10 11 -10 5 0 7 5 4 10 -3 6 -8 10 -11 10 -2 0
-4 -4 -4 -10z"/>
<path d="M16300 9111 c-5 -11 -9 -57 -8 -103 2 -73 -1 -87 -19 -105 -25 -25
-50 -154 -37 -192 24 -66 48 -17 58 113 5 66 10 84 30 105 24 26 32 63 28 143
-2 46 -35 70 -52 39z"/>
<path d="M15642 8873 c-6 -15 -16 -55 -23 -88 -6 -33 -17 -71 -24 -85 -17 -35
-26 -90 -15 -90 22 0 39 53 71 218 13 67 8 90 -9 45z"/>
<path d="M4952 8806 c-1 -14 5 -27 15 -30 22 -9 36 8 28 33 -9 29 -40 27 -43
-3z"/>
<path d="M4977 8712 c1 -8 3 -25 3 -38 0 -49 71 -87 85 -45 10 33 -5 69 -35
81 -16 7 -33 9 -39 6 -5 -3 -11 -3 -14 1 -2 5 -2 2 0 -5z"/>
<path d="M16130 8674 c0 -8 5 -12 10 -9 6 4 8 11 5 16 -9 14 -15 11 -15 -7z"/>
<path d="M16206 8595 c-19 -19 -41 -135 -25 -135 13 0 30 39 44 97 13 55 8 64
-19 38z"/>
<path d="M5061 8584 c0 -11 3 -14 6 -6 3 7 2 16 -1 19 -3 4 -6 -2 -5 -13z"/>
<path d="M5073 8570 c-7 -10 -11 -25 -9 -32 3 -7 7 -25 10 -40 4 -16 10 -28
14 -28 10 0 42 58 42 77 0 14 -26 42 -40 43 -3 0 -11 -9 -17 -20z"/>
<path d="M15553 8579 c-7 -7 -13 -18 -13 -25 0 -6 -7 -25 -15 -40 -17 -33 -20
-68 -5 -59 19 12 51 86 48 111 -2 20 -5 23 -15 13z"/>
<path d="M5022 8394 c3 -44 21 -53 26 -13 2 15 -4 31 -13 39 -15 12 -16 10
-13 -26z"/>
<path d="M16144 8422 c-7 -4 -20 -32 -29 -62 -17 -56 -24 -73 -52 -124 -9 -16
-17 -57 -19 -90 -2 -57 -2 -59 11 -36 8 14 35 73 60 133 34 80 45 118 43 147
-2 27 -7 37 -14 32z"/>
<path d="M15468 8378 c-20 -43 -31 -118 -18 -118 14 0 48 70 52 109 4 45 -16
50 -34 9z"/>
<path d="M5140 8270 c0 -5 5 -10 10 -10 6 0 10 5 10 10 0 6 -4 10 -10 10 -5 0
-10 -4 -10 -10z"/>
<path d="M5117 8239 c-14 -8 -15 -14 -6 -30 10 -20 11 -20 24 -2 27 35 17 52
-18 32z"/>
<path d="M4747 8032 c-2 -9 -5 -30 -6 -47 0 -16 -8 -35 -16 -41 -8 -6 -12 -13
-10 -16 3 -3 -1 -11 -10 -18 -10 -8 -15 -30 -15 -61 0 -42 5 -55 35 -88 19
-21 35 -47 35 -58 0 -31 49 -82 85 -89 25 -4 38 -1 59 19 33 31 33 61 -1 94
l-28 25 -5 -48 c-5 -48 -6 -49 -38 -47 -42 2 -43 3 -34 38 5 17 21 36 38 46
26 14 29 20 26 60 -2 24 -18 76 -36 114 -18 39 -36 82 -39 96 -8 32 -34 45
-40 21z"/>
<path d="M15952 7951 c-17 -23 -33 -60 -37 -82 -15 -85 22 -52 55 50 11 35 18
66 16 69 -3 2 -18 -15 -34 -37z"/>
<path d="M15228 7870 c-19 -25 -25 -80 -9 -80 19 0 32 30 29 67 l-3 38 -17
-25z"/>
<path d="M15853 7723 c-15 -27 -38 -56 -51 -67 -16 -12 -22 -27 -20 -45 4 -37
30 -33 50 8 9 18 26 43 38 56 23 25 39 95 22 95 -6 0 -24 -21 -39 -47z"/>
<path d="M15143 7708 c-11 -13 -28 -38 -38 -57 l-17 -33 37 28 c43 34 74 84
52 84 -7 0 -23 -10 -34 -22z"/>
<path d="M4930 7620 c0 -5 5 -10 10 -10 6 0 10 5 10 10 0 6 -4 10 -10 10 -5 0
-10 -4 -10 -10z"/>
<path d="M4892 7580 c0 -14 2 -19 5 -12 2 6 2 18 0 25 -3 6 -5 1 -5 -13z"/>
<path d="M4934 7553 c3 -6 -1 -13 -11 -16 -17 -4 -17 -5 0 -6 9 0 17 -7 17
-15 0 -14 41 -46 60 -46 17 0 11 19 -11 38 -12 9 -31 26 -42 37 -11 11 -17 15
-13 8z"/>
<path d="M15876 7532 c-3 -5 -14 -33 -26 -64 -32 -86 -70 -86 -79 -1 -5 39
-10 48 -26 48 -17 0 -23 -13 -38 -75 -15 -60 -26 -83 -56 -115 -45 -47 -75
-101 -67 -121 4 -10 -4 -18 -23 -25 -24 -8 -31 -18 -36 -50 -5 -30 -14 -43
-35 -54 -16 -8 -32 -25 -36 -37 -4 -13 -21 -41 -38 -62 -34 -43 -45 -59 -93
-131 -18 -27 -46 -54 -62 -61 -18 -7 -38 -29 -49 -51 -11 -21 -45 -61 -76 -90
-34 -31 -56 -60 -56 -72 0 -33 28 -25 51 13 11 19 34 41 50 48 16 7 29 17 29
21 0 13 43 46 61 47 18 0 49 31 49 48 0 6 14 19 31 28 l31 16 -7 -44 c-12 -71
-32 -96 -87 -107 -25 -5 -37 -17 -62 -64 -17 -31 -37 -57 -43 -57 -7 0 -13 -4
-13 -10 0 -5 -10 -18 -21 -29 -18 -16 -21 -28 -16 -61 5 -39 0 -46 -28 -40 -5
1 -7 -2 -3 -6 10 -9 -30 -64 -47 -64 -8 0 -23 -13 -35 -30 -11 -16 -34 -43
-50 -59 -17 -16 -30 -36 -30 -43 0 -8 -13 -24 -29 -36 -21 -15 -31 -33 -36
-63 -5 -30 -19 -53 -49 -83 -22 -23 -48 -53 -57 -67 -40 -61 -204 -228 -274
-280 -110 -80 -117 -89 -111 -130 l6 -37 -43 -7 c-59 -10 -77 -22 -77 -51 0
-20 -9 -29 -44 -44 -52 -24 -61 -34 -70 -82 -7 -39 -20 -48 -71 -48 -27 0 -37
-6 -54 -34 -12 -18 -34 -39 -50 -46 -16 -6 -34 -24 -41 -40 -11 -26 -46 -50
-73 -50 -7 0 -37 -25 -67 -56 -30 -31 -74 -64 -97 -74 -23 -10 -59 -35 -80
-55 -21 -20 -63 -45 -93 -56 -61 -22 -91 -44 -109 -76 -6 -13 -35 -31 -71 -44
-32 -12 -67 -30 -76 -40 -10 -11 -30 -19 -50 -19 -53 0 -84 -16 -84 -43 0 -38
-33 -61 -79 -54 -27 3 -48 0 -68 -13 -17 -10 -43 -21 -60 -24 -16 -4 -45 -21
-64 -39 -41 -38 -242 -112 -404 -147 -139 -31 -344 -83 -445 -113 -47 -14
-119 -28 -160 -31 -152 -12 -197 -17 -295 -32 -55 -9 -115 -20 -133 -26 -19
-5 -67 -12 -107 -13 -41 -2 -132 -11 -202 -19 -70 -9 -204 -20 -298 -25 -158
-9 -305 -28 -400 -52 -22 -6 -98 -17 -170 -24 -170 -17 -285 -33 -365 -50
-344 -74 -709 -94 -935 -50 -210 40 -309 76 -436 157 -30 20 -71 43 -90 51
-18 8 -54 31 -78 51 -47 39 -92 66 -112 66 -6 0 -37 15 -68 32 -31 18 -83 40
-116 50 -33 9 -85 26 -115 37 -63 23 -123 27 -137 9 -6 -7 -13 -23 -16 -36 -4
-19 2 -26 34 -42 41 -21 45 -34 30 -86 -8 -30 -7 -32 28 -42 21 -7 55 -31 82
-60 34 -36 67 -58 123 -81 43 -18 92 -41 109 -52 18 -10 41 -19 52 -19 11 0
30 -7 42 -15 70 -49 347 -127 463 -129 47 -1 123 -9 170 -17 119 -20 364 -16
416 7 25 10 85 19 164 24 70 4 158 17 200 28 41 12 98 25 125 30 28 6 102 24
165 40 63 16 171 35 240 42 69 7 148 18 175 26 110 29 327 37 874 31 295 -3
552 -9 571 -12 101 -16 176 -25 274 -30 60 -4 126 -13 145 -21 20 -7 63 -15
96 -18 58 -4 133 -25 185 -51 20 -10 66 -11 220 -4 166 8 205 13 260 33 36 14
81 29 100 35 19 6 57 27 84 46 27 19 56 35 63 35 19 0 93 39 93 48 0 22 43 52
74 52 22 0 52 12 83 33 69 46 184 139 219 176 16 18 53 45 82 62 39 22 58 40
69 67 18 44 31 54 60 47 14 -3 31 3 48 19 14 13 36 31 47 38 20 14 21 17 9 61
-18 63 -11 77 38 75 43 -1 71 14 71 41 1 35 51 98 191 239 31 31 59 69 63 83
5 24 100 139 194 234 21 22 50 60 65 85 14 25 46 69 71 98 25 30 46 58 46 62
0 5 20 32 45 60 25 28 45 55 45 60 0 4 17 30 37 57 20 26 48 71 61 98 14 28
38 65 54 84 17 19 36 48 43 65 7 17 27 46 44 64 17 17 31 36 31 42 0 6 27 50
60 98 33 49 60 93 60 98 0 6 21 41 46 79 26 39 67 108 91 155 25 46 60 101 79
122 22 25 34 48 34 68 0 16 6 33 13 37 20 13 41 50 101 182 31 68 81 155 110
195 32 42 57 87 61 109 4 20 11 40 16 43 21 12 89 165 89 198 0 59 -26 106
-44 78z m-316 -502 c0 -11 -4 -20 -10 -20 -5 0 -10 9 -10 20 0 11 5 20 10 20
6 0 10 -9 10 -20z m-70 -116 c0 -8 -4 -12 -10 -9 -5 3 -10 10 -10 16 0 5 5 9
10 9 6 0 10 -7 10 -16z"/>
<path d="M5083 7285 c0 -8 4 -15 9 -15 4 0 8 4 8 9 0 6 -4 12 -8 15 -5 3 -9
-1 -9 -9z"/>
<path d="M14420 6660 c0 -5 5 -10 10 -10 6 0 10 5 10 10 0 6 -4 10 -10 10 -5
0 -10 -4 -10 -10z"/>
<path d="M15029 6498 c-9 -7 -38 -46 -65 -86 -27 -41 -56 -78 -65 -83 -9 -5
-25 -23 -36 -41 -11 -18 -45 -53 -77 -78 -32 -25 -110 -99 -175 -164 -132
-136 -172 -175 -195 -194 -21 -17 -21 -62 0 -62 8 0 25 12 37 26 12 14 51 58
86 97 34 39 66 78 70 88 5 15 33 38 155 126 83 60 178 165 261 290 45 68 47
117 4 81z"/>
<path d="M3475 6082 c1 -121 6 -213 13 -237 6 -22 12 -62 13 -90 l2 -50 6 45
c6 44 -3 340 -13 430 -13 119 -21 83 -21 -98z"/>
<path d="M4192 5920 c-5 -14 -22 -37 -37 -52 -15 -16 -24 -28 -19 -28 5 0 -2
-7 -14 -16 -26 -18 -45 -10 -37 16 4 11 -1 20 -11 24 -14 5 -15 4 -4 -9 10
-13 9 -15 -9 -16 -40 -3 -46 -5 -43 -17 1 -7 -2 -12 -7 -12 -4 0 -11 -16 -14
-35 -3 -20 -18 -60 -34 -90 -25 -50 -26 -58 -14 -88 18 -44 22 -85 11 -92 -19
-12 -10 -70 20 -129 31 -61 70 -194 70 -238 0 -14 11 -34 25 -46 14 -12 28
-36 32 -52 3 -19 21 -42 45 -61 21 -17 46 -45 55 -63 30 -58 78 -108 127 -133
26 -13 67 -44 90 -68 24 -25 72 -57 112 -75 38 -18 96 -45 128 -61 32 -16 66
-29 75 -29 9 0 27 -9 41 -19 20 -16 35 -19 90 -14 60 5 71 3 124 -26 69 -36
84 -38 134 -12 30 15 41 17 54 7 23 -17 13 -50 -18 -65 -13 -6 -24 -18 -24
-27 0 -14 7 -16 43 -10 23 4 49 8 57 8 26 2 134 -10 150 -16 8 -3 38 -7 65
-10 28 -3 65 -10 83 -17 18 -6 52 -9 74 -6 32 4 52 0 89 -20 33 -17 74 -27
131 -33 46 -4 112 -14 148 -23 36 -8 98 -20 138 -26 41 -6 96 -21 123 -33 37
-15 53 -18 61 -10 7 7 10 13 7 15 -69 52 -112 69 -206 78 -54 6 -123 16 -153
24 -30 7 -92 19 -137 25 -57 9 -92 19 -114 36 -38 28 -52 30 -73 9 -12 -12
-20 -13 -36 -5 -11 6 -74 17 -141 25 -120 14 -138 21 -139 55 -1 22 -19 42
-69 78 -24 18 -41 32 -36 32 4 0 2 7 -5 15 -8 9 -14 58 -16 128 -5 131 -10
157 -28 157 -8 0 -28 17 -45 38 -17 20 -37 44 -44 53 -7 8 -16 22 -19 31 -4 8
-23 23 -45 33 -21 10 -51 30 -67 46 -15 16 -32 29 -36 29 -4 0 -10 11 -14 23
-5 21 -56 74 -136 143 -34 29 -65 67 -62 77 1 4 -29 37 -67 75 -52 50 -75 81
-90 122 -12 31 -40 75 -64 100 -40 42 -107 142 -107 159 0 14 -46 51 -78 62
-18 6 -32 14 -32 17 0 4 -11 21 -24 37 l-24 30 -10 -25z"/>
<path d="M13481 5856 c-16 -19 -11 -29 8 -17 7 5 12 14 9 21 -3 9 -8 7 -17 -4z"/>
<path d="M13311 5764 c-11 -15 -21 -31 -21 -36 0 -13 59 0 88 19 30 19 23 37
-15 41 -24 2 -36 -3 -52 -24z"/>
<path d="M14322 5764 c-13 -9 -34 -33 -48 -55 -13 -22 -32 -39 -42 -39 -10 0
-49 -20 -86 -45 -38 -25 -72 -45 -75 -45 -12 0 -109 -117 -113 -136 -6 -33 30
-29 50 7 9 17 26 39 36 48 11 9 38 32 60 51 23 20 60 44 83 54 26 12 50 32 63
52 10 19 26 34 34 34 18 0 86 63 86 79 0 16 -22 14 -48 -5z"/>
<path d="M13151 5646 c-12 -13 -18 -26 -13 -30 12 -7 52 22 52 40 0 21 -13 17
-39 -10z"/>
<path d="M3526 5535 c4 -27 8 -95 9 -150 2 -59 9 -119 18 -145 14 -41 20 -69
32 -142 4 -28 60 -215 77 -258 5 -14 37 -71 70 -127 51 -84 80 -120 172 -205
61 -57 145 -125 187 -150 149 -93 419 -209 589 -253 47 -12 110 -30 140 -39
30 -8 127 -27 215 -42 88 -14 188 -32 221 -40 34 -8 80 -16 103 -19 22 -3 71
-11 108 -19 38 -8 122 -22 188 -31 66 -9 154 -25 195 -35 41 -11 136 -30 210
-44 168 -31 260 -62 410 -137 65 -32 122 -59 127 -59 15 0 123 -78 174 -125
25 -23 65 -55 90 -70 24 -15 69 -53 99 -84 30 -31 67 -65 82 -76 15 -11 27
-25 28 -32 0 -7 26 -38 59 -70 32 -32 77 -85 101 -118 62 -88 397 -414 512
-500 58 -43 120 -81 151 -91 29 -9 77 -29 107 -44 30 -15 100 -42 155 -61
l100 -34 220 1 c140 0 236 5 265 13 25 7 51 13 58 13 6 1 12 5 12 9 0 4 35 15
78 25 42 9 133 38 202 64 69 26 143 53 164 60 22 7 54 21 72 32 39 23 233 110
323 144 35 14 78 32 95 41 17 9 45 17 61 19 17 1 69 21 117 44 50 24 137 53
205 70 321 77 279 72 544 69 l243 -2 201 -43 c120 -25 236 -57 290 -78 49 -20
91 -36 92 -36 2 0 3 6 3 14 0 8 -12 21 -27 29 -16 8 -41 22 -58 31 -16 9 -37
16 -45 16 -14 0 -161 39 -301 81 -36 10 -79 19 -95 19 -17 0 -36 6 -43 13 -9
9 -74 12 -259 12 l-247 -1 -44 -26 c-32 -19 -53 -25 -73 -21 -16 3 -43 -2 -65
-12 -20 -10 -67 -21 -104 -25 -40 -5 -82 -16 -102 -29 -19 -11 -48 -21 -65
-21 -16 0 -43 -6 -58 -13 -28 -11 -41 -19 -124 -73 -19 -12 -51 -25 -70 -29
-19 -3 -91 -26 -160 -50 -69 -24 -137 -46 -152 -49 -14 -3 -41 -18 -58 -32
-24 -21 -41 -26 -76 -26 -48 1 -125 -30 -160 -65 -12 -12 -46 -22 -106 -29
-62 -8 -107 -20 -153 -43 -51 -25 -69 -30 -84 -21 -28 15 -80 12 -135 -6 -36
-13 -64 -15 -115 -9 -36 3 -113 10 -171 14 -87 6 -113 11 -154 34 -27 15 -57
27 -66 27 -34 0 -102 30 -169 75 -61 41 -74 46 -110 41 -37 -4 -43 -1 -53 19
-10 22 -36 43 -110 89 -15 9 -30 27 -34 40 -3 15 -20 30 -47 42 -34 15 -43 25
-45 49 -4 33 -16 45 -49 45 -32 0 -63 35 -63 70 0 29 -2 30 -43 30 -37 0 -46
4 -58 27 -11 20 -11 27 -2 30 7 3 23 13 35 23 19 15 20 20 9 34 -18 22 -29 20
-51 -6 -23 -28 -49 -17 -63 28 -6 16 -19 35 -29 42 -10 8 -24 21 -31 29 -7 8
-51 56 -99 105 -49 49 -88 94 -88 99 0 5 -18 18 -39 29 -24 12 -46 33 -58 56
-13 28 -29 41 -63 54 -25 10 -63 33 -85 52 -22 19 -76 54 -120 78 -44 24 -95
56 -113 72 -18 15 -36 28 -40 29 -102 8 -126 20 -117 59 8 37 -18 46 -86 30
-41 -10 -56 -10 -89 4 -22 9 -53 16 -68 16 -32 0 -248 45 -312 65 -25 7 -81
16 -124 20 -43 3 -82 8 -87 10 -4 3 -42 10 -83 15 -42 5 -88 16 -104 24 -15 7
-49 16 -77 20 -361 43 -505 75 -558 123 -12 11 -39 26 -59 32 -32 11 -42 10
-68 -5 -29 -18 -31 -18 -77 5 -27 13 -66 29 -88 36 -64 19 -244 109 -245 122
0 12 -51 33 -81 33 -10 0 -35 21 -55 46 -21 25 -75 71 -121 101 -71 46 -120
93 -97 93 3 0 -10 18 -30 40 -20 22 -36 46 -36 54 0 8 -22 34 -49 58 -31 28
-53 57 -61 83 -7 22 -26 58 -41 79 -20 28 -29 52 -29 80 0 22 -12 65 -29 100
-29 62 -43 117 -82 326 -22 119 -46 188 -33 95z"/>
<path d="M12966 5557 c-48 -27 -67 -54 -47 -66 26 -17 72 12 97 61 18 35 5 37
-50 5z"/>
<path d="M12790 5445 c-7 -9 -10 -18 -7 -22 4 -3 9 2 13 11 3 9 10 13 15 10 5
-3 9 0 9 5 0 16 -16 13 -30 -4z"/>
<path d="M13850 5387 c-14 -7 -50 -29 -80 -49 -86 -55 -113 -71 -147 -89 -18
-9 -45 -28 -60 -42 -100 -91 -163 -136 -199 -143 -21 -4 -62 -21 -89 -39 -28
-18 -67 -37 -86 -44 -20 -6 -56 -32 -82 -57 -26 -25 -52 -42 -57 -39 -16 10
-104 -23 -146 -55 -22 -16 -47 -30 -58 -30 -24 0 -246 -97 -268 -117 -28 -25
-104 -56 -248 -102 -74 -23 -178 -56 -230 -73 -52 -16 -117 -42 -145 -58 -34
-18 -71 -29 -115 -32 -57 -5 -231 -41 -400 -83 -30 -7 -77 -18 -105 -23 -27
-5 -81 -17 -120 -27 -38 -10 -87 -22 -109 -27 -28 -7 -36 -12 -28 -20 8 -8 37
-7 104 6 51 10 127 21 168 26 41 5 98 16 125 24 50 15 307 63 401 75 28 4 62
14 76 23 31 20 140 52 233 69 38 7 97 25 130 41 33 15 73 28 88 28 15 0 40 6
55 14 15 8 54 21 85 29 32 9 85 31 118 51 32 19 76 40 97 45 20 6 63 26 95 45
31 19 71 39 90 45 18 6 54 29 81 51 27 22 60 43 75 46 38 9 123 59 150 88 14
14 67 47 120 73 101 49 169 95 202 137 11 14 39 34 62 44 23 11 74 41 112 67
39 27 86 59 105 72 48 31 60 42 60 53 0 14 -31 12 -60 -3z"/>
<path d="M12435 5314 c-33 -19 -88 -43 -122 -54 -34 -10 -83 -30 -110 -43 -26
-14 -71 -31 -98 -40 -28 -8 -68 -24 -90 -36 -22 -11 -52 -21 -68 -21 -15 0
-44 -7 -65 -16 -20 -8 -89 -26 -152 -40 -63 -14 -137 -32 -163 -40 -26 -9 -58
-17 -70 -18 -78 -10 -224 -43 -447 -102 -39 -10 -95 -17 -140 -16 -41 1 -124
-3 -185 -9 -376 -36 -861 -43 -1092 -16 -135 16 -173 15 -173 -4 0 -11 41 -17
165 -24 55 -3 118 -10 140 -15 65 -16 647 -24 740 -10 44 6 175 15 290 20 213
8 327 23 445 61 36 11 111 24 168 29 67 6 118 16 145 29 23 11 60 23 82 26 76
12 140 28 168 42 15 7 50 16 78 19 28 2 61 11 72 19 12 8 65 29 117 48 236 86
295 110 408 165 72 36 82 48 60 70 -18 18 -38 14 -103 -24z"/>
<path d="M8840 4981 c0 -14 57 -29 140 -36 41 -4 87 -8 103 -10 15 -2 25 0 22
5 -6 9 -48 18 -128 25 -31 3 -69 10 -83 15 -32 13 -54 13 -54 1z"/>
<path d="M9180 4918 c0 -4 8 -8 18 -8 19 0 149 -44 159 -54 10 -10 63 -7 63 4
0 6 -6 10 -13 10 -7 0 -30 9 -51 21 -39 21 -176 42 -176 27z"/>
<path d="M7860 4611 c0 -16 273 -111 285 -99 7 7 -169 84 -220 97 -49 13 -65
14 -65 2z"/>
<path d="M8570 4385 c0 -7 131 -44 175 -49 22 -2 64 -14 93 -25 29 -12 63 -21
76 -21 14 0 71 -11 128 -25 57 -14 113 -25 126 -25 36 0 25 19 -15 25 -34 6
-104 23 -283 70 -30 8 -73 15 -95 15 -22 0 -65 9 -95 20 -51 18 -110 26 -110
15z"/>
<path d="M10413 4198 c-47 -23 -24 -31 64 -24 48 4 101 10 117 13 26 6 28 7
11 14 -30 11 -167 9 -192 -3z"/>
<path d="M9896 4191 c-8 -12 18 -21 57 -21 23 1 28 3 17 9 -26 14 -69 21 -74
12z"/>
<path d="M10065 4181 c-64 -5 -74 -8 -51 -14 35 -10 174 -7 201 4 18 7 18 8
-5 9 -14 0 -34 2 -45 3 -11 2 -56 1 -100 -2z"/>
<path d="M6500 4165 c0 -6 68 -35 81 -35 19 0 8 28 -13 34 -28 7 -68 8 -68 1z"/>
<path d="M6690 4123 c0 -22 90 -110 135 -133 32 -16 74 -54 76 -67 0 -8 41
-46 134 -127 28 -24 67 -51 87 -59 20 -8 41 -25 47 -36 7 -11 60 -70 119 -130
59 -60 115 -118 125 -128 165 -171 383 -368 463 -418 115 -72 286 -154 374
-179 14 -4 48 -16 75 -26 93 -35 196 -49 389 -54 141 -3 201 -1 235 9 25 8 80
21 122 30 84 17 255 70 273 84 20 16 139 62 222 85 87 25 134 50 134 72 0 26
-136 18 -199 -11 -29 -14 -72 -28 -95 -31 -22 -4 -53 -13 -68 -20 -15 -8 -43
-14 -62 -14 -20 0 -64 -9 -98 -19 -173 -52 -541 -76 -681 -45 -40 9 -106 22
-147 29 -56 10 -109 30 -206 79 -71 36 -141 77 -154 91 -13 14 -56 42 -95 61
-44 23 -97 62 -145 108 -41 40 -120 112 -175 161 -55 48 -110 98 -121 111 -12
12 -35 29 -52 38 -17 9 -39 28 -50 43 -43 60 -118 131 -146 137 -15 4 -43 21
-60 39 -43 42 -109 88 -169 118 -49 23 -67 39 -47 39 22 0 -9 38 -40 49 -17 6
-59 35 -93 64 -71 62 -107 79 -107 50z"/>
<path d="M11556 2774 c-4 -9 -5 -18 -4 -19 2 -1 41 -15 88 -32 47 -17 138 -52
203 -76 95 -36 115 -41 100 -25 -25 28 -117 73 -180 88 -29 6 -64 21 -77 31
-28 22 -88 49 -110 49 -7 0 -17 -7 -20 -16z"/>
<path d="M12091 2561 c-7 -5 -9 -11 -5 -14 11 -6 231 -77 240 -77 18 0 -28 29
-57 35 -19 4 -52 18 -74 30 -49 28 -86 37 -104 26z"/>
<path d="M12368 2463 c7 -3 16 -2 19 1 4 3 -2 6 -13 5 -11 0 -14 -3 -6 -6z"/>
<path d="M12700 2349 c91 -22 268 -59 284 -59 27 1 -39 40 -68 40 -17 0 -63 9
-101 20 -39 11 -97 20 -130 19 l-60 -1 75 -19z"/>
<path d="M13192 2260 c43 -4 92 -4 110 0 22 5 -4 8 -77 8 l-110 -1 77 -7z"/>
</g>
</svg>
